<svg xmlns="http://www.w3.org/2000/svg" width="1060" height="420" viewBox="0 0 1060 420">
  <rect width="1060" height="420" fill="#ffffff"/>
  <text x="530" y="32" text-anchor="middle" font-family="sans-serif" font-size="18" font-weight="700" fill="#222">常见六层工程模型与依赖方向（不可反向）</text>

  <rect x="400" y="52" width="260" height="56" rx="8" fill="#f5f5f5" stroke="#666"/>
  <text x="530" y="76" text-anchor="middle" font-family="sans-serif" font-size="14" font-weight="600" fill="#333">app</text>
  <text x="530" y="96" text-anchor="middle" font-family="sans-serif" font-size="12" fill="#555">启动组装 / 组件扫描</text>

  <rect x="400" y="140" width="260" height="56" rx="8" fill="#dae8fc" stroke="#6c8ebf"/>
  <text x="530" y="164" text-anchor="middle" font-family="sans-serif" font-size="14" font-weight="600" fill="#333">trigger</text>
  <text x="530" y="184" text-anchor="middle" font-family="sans-serif" font-size="12" fill="#555">Controller / Assembler / JWT</text>

  <rect x="80" y="140" width="220" height="56" rx="8" fill="#ffe6cc" stroke="#d79b00"/>
  <text x="190" y="164" text-anchor="middle" font-family="sans-serif" font-size="14" font-weight="600" fill="#333">api</text>
  <text x="190" y="184" text-anchor="middle" font-family="sans-serif" font-size="12" fill="#555">I*Service / Request / Response / R</text>

  <rect x="80" y="240" width="220" height="56" rx="8" fill="#f8cecc" stroke="#b85450"/>
  <text x="190" y="264" text-anchor="middle" font-family="sans-serif" font-size="14" font-weight="600" fill="#333">types</text>
  <text x="190" y="284" text-anchor="middle" font-family="sans-serif" font-size="12" fill="#555">BizException / ResponseCode</text>

  <rect x="400" y="232" width="260" height="70" rx="8" fill="#d5e8d4" stroke="#82b366"/>
  <text x="530" y="260" text-anchor="middle" font-family="sans-serif" font-size="14" font-weight="600" fill="#333">domain</text>
  <text x="530" y="280" text-anchor="middle" font-family="sans-serif" font-size="12" fill="#555">模型 + 用例编排（application 包）</text>

  <rect x="740" y="140" width="280" height="70" rx="8" fill="#e1d5e7" stroke="#9673a6"/>
  <text x="880" y="168" text-anchor="middle" font-family="sans-serif" font-size="14" font-weight="600" fill="#333">infrastructure</text>
  <text x="880" y="188" text-anchor="middle" font-family="sans-serif" font-size="12" fill="#555">Impl / Publisher / AutoConfig</text>

  <defs>
    <marker id="arrow" markerWidth="8" markerHeight="8" refX="6" refY="3" orient="auto"><path d="M0,0 L6,3 L0,6 Z" fill="#555"/></marker>
  </defs>
  <line x1="530" y1="108" x2="530" y2="140" stroke="#555" stroke-width="1.5" marker-end="url(#arrow)"/>
  <line x1="400" y1="168" x2="300" y2="168" stroke="#555" stroke-width="1.5" marker-end="url(#arrow)"/>
  <line x1="190" y1="196" x2="190" y2="240" stroke="#555" stroke-width="1.5" marker-end="url(#arrow)"/>
  <line x1="530" y1="196" x2="530" y2="232" stroke="#555" stroke-width="1.5" marker-end="url(#arrow)"/>
  <path d="M400 267 H300" fill="none" stroke="#555" stroke-width="1.5" marker-end="url(#arrow)"/>
  <path d="M660 80 H880 V140" fill="none" stroke="#555" stroke-width="1.5" marker-end="url(#arrow)"/>
  <path d="M880 210 V267 H660" fill="none" stroke="#555" stroke-width="1.5" stroke-dasharray="5 4" marker-end="url(#arrow)"/>
  <text x="720" y="250" font-family="sans-serif" font-size="12" fill="#666">实现端口</text>
  <text x="80" y="360" font-family="sans-serif" font-size="13" fill="#444">app → trigger → api → types；trigger → domain → types；app → infrastructure → domain（通用、无 AI）</text>
</svg>
