<svg xmlns="http://www.w3.org/2000/svg" width="980" height="400" viewBox="0 0 980 400">
  <rect width="980" height="400" fill="#ffffff"/>
  <text x="490" y="36" text-anchor="middle" font-family="sans-serif" font-size="18" font-weight="700" fill="#222">†ß‹öşïregister ’ save ’ pull ’ publish</text>
  <rect x="40" y="100" width="120" height="50" rx="8" fill="#dae8fc" stroke="#6c8ebf"/>
  <text x="100" y="130" text-anchor="middle" font-family="sans-serif" font-size="14" font-weight="600">Controller</text>
  <rect x="220" y="90" width="160" height="70" rx="8" fill="#fff2cc" stroke="#d6b656"/>
  <text x="300" y="118" text-anchor="middle" font-family="sans-serif" font-size="14" font-weight="600">ApplicationService</text>
  <text x="300" y="138" text-anchor="middle" font-family="sans-serif" font-size="12" fill="#555">@Transactional</text>
  <rect x="460" y="40" width="120" height="50" rx="8" fill="#d5e8d4" stroke="#82b366"/>
  <text x="520" y="70" text-anchor="middle" font-family="sans-serif" font-size="14" font-weight="600">Factory</text>
  <rect x="450" y="120" width="140" height="60" rx="8" fill="#d5e8d4" stroke="#82b366"/>
  <text x="520" y="145" text-anchor="middle" font-family="sans-serif" font-size="14" font-weight="600">AggregateRoot</text>
  <text x="520" y="164" text-anchor="middle" font-family="sans-serif" font-size="12" fill="#555">registerEvent</text>
  <rect x="450" y="220" width="140" height="50" rx="8" fill="#e1d5e7" stroke="#9673a6"/>
  <text x="520" y="250" text-anchor="middle" font-family="sans-serif" font-size="14" font-weight="600">Repository.save</text>
  <rect x="680" y="120" width="200" height="60" rx="8" fill="#e1d5e7" stroke="#9673a6"/>
  <text x="780" y="145" text-anchor="middle" font-family="sans-serif" font-size="14" font-weight="600">DomainEventPublisher</text>
  <text x="780" y="164" text-anchor="middle" font-family="sans-serif" font-size="12" fill="#555">publish</text>
  <defs><marker id="a" markerWidth="8" markerHeight="8" refX="6" refY="3" orient="auto"><path d="M0,0 L6,3 L0,6 Z" fill="#555"/></marker></defs>
  <line x1="160" y1="125" x2="220" y2="125" stroke="#555" stroke-width="1.5" marker-end="url(#a)"/>
  <text x="175" y="115" font-family="sans-serif" font-size="11" fill="#666">Command</text>
  <line x1="380" y1="110" x2="460" y2="70" stroke="#555" stroke-width="1.5" marker-end="url(#a)"/>
  <text x="400" y="80" font-family="sans-serif" font-size="11" fill="#666">create</text>
  <line x1="520" y1="90" x2="520" y2="120" stroke="#555" stroke-width="1.5" marker-end="url(#a)"/>
  <line x1="380" y1="160" x2="450" y2="240" stroke="#555" stroke-width="1.5" marker-end="url(#a)"/>
  <text x="390" y="220" font-family="sans-serif" font-size="11" fill="#666">save</text>
  <line x1="380" y1="130" x2="450" y2="145" stroke="#555" stroke-width="1.5" marker-end="url(#a)"/>
  <text x="390" y="155" font-family="sans-serif" font-size="11" fill="#666">pull</text>
  <line x1="380" y1="125" x2="680" y2="145" stroke="#555" stroke-width="1.5" marker-end="url(#a)"/>
  <text x="560" y="115" font-family="sans-serif" font-size="11" fill="#666">publish</text>
  <text x="80" y="340" font-family="sans-serif" font-size="13" fill="#444">‹¡¹L(”(¡EŸ pullDomainEvents v publishK¶Ø¤e Spring ‹öÑ</text>
</svg>
